M48
; DRILL file {KiCad 9.0.3} date 2026-03-29T13:25:16+0200
; FORMAT={-:-/ absolute / metric / decimal}
; #@! TF.CreationDate,2026-03-29T13:25:16+02:00
; #@! TF.GenerationSoftware,Kicad,Pcbnew,9.0.3
; #@! TF.FileFunction,Plated,1,2,PTH
FMAT,2
METRIC
; #@! TA.AperFunction,Plated,PTH,ViaDrill
T1C0.300
; #@! TA.AperFunction,Plated,PTH,ComponentDrill
T2C0.700
; #@! TA.AperFunction,Plated,PTH,ComponentDrill
T3C0.800
; #@! TA.AperFunction,Plated,PTH,ComponentDrill
T4C0.810
; #@! TA.AperFunction,Plated,PTH,ComponentDrill
T5C0.900
; #@! TA.AperFunction,Plated,PTH,ComponentDrill
T6C1.270
; #@! TA.AperFunction,Plated,PTH,ComponentDrill
T7C1.300
; #@! TA.AperFunction,Plated,PTH,ComponentDrill
T8C2.300
; #@! TA.AperFunction,Plated,PTH,ComponentDrill
T9C3.200
%
G90
G05
T1
X116.57Y-59.65
X116.57Y-69.85
X134.97Y-89.75
X134.97Y-99.75
X137.97Y-89.75
X137.97Y-99.75
X138.445Y-56.95
X138.47Y-116.75
X138.47Y-134.75
X138.495Y-114.25
X148.47Y-114.25
X148.47Y-116.75
X148.47Y-134.75
X148.495Y-56.975
X163.72Y-119.25
X163.72Y-129.3
X211.469Y-70.662
X211.47Y-94.4
X211.47Y-102.32
X211.481Y-78.562
X221.47Y-70.64
X221.47Y-78.56
X221.47Y-94.4
X221.47Y-102.32
T2
X190.81Y-119.25
X190.81Y-124.33
X190.81Y-126.87
X190.81Y-129.41
X200.97Y-119.25
X200.97Y-121.79
X200.97Y-124.33
X200.97Y-126.87
X200.97Y-129.41
T3
X93.515Y-103.125
X103.675Y-103.125
X110.47Y-52.25
X110.47Y-57.25
X110.47Y-59.67
X110.47Y-69.83
X110.47Y-109.39
X110.47Y-119.55
X110.47Y-129.67
X110.47Y-139.83
X111.47Y-73.795
X111.47Y-75.795
X111.47Y-82.795
X111.47Y-84.795
X113.39Y-125.75
X113.39Y-143.75
X113.47Y-59.67
X113.47Y-69.83
X113.97Y-109.39
X113.97Y-119.55
X114.47Y-129.25
X114.47Y-132.25
X114.47Y-137.25
X114.47Y-140.05
X116.87Y-78.0
X116.89Y-81.25
X118.22Y-129.25
X118.22Y-132.25
X118.22Y-137.25
X118.22Y-140.025
X119.42Y-74.7
X119.77Y-59.665
X119.77Y-69.825
X121.97Y-129.25
X121.97Y-132.25
X121.97Y-137.25
X121.97Y-140.0
X122.795Y-59.675
X122.795Y-69.835
X123.55Y-125.75
X123.55Y-143.75
X124.42Y-74.7
X125.82Y-62.25
X125.82Y-67.25
X126.97Y-133.295
X126.97Y-135.295
X127.03Y-78.0
X127.05Y-81.25
X128.47Y-122.25
X128.47Y-127.25
X128.82Y-59.715
X128.82Y-69.875
X131.39Y-86.25
X132.97Y-104.25
X134.97Y-104.25
X139.665Y-60.94
X139.665Y-63.48
X139.665Y-66.02
X139.665Y-68.56
X139.665Y-120.94
X139.665Y-123.48
X139.665Y-126.02
X139.665Y-128.56
X140.97Y-72.25
X140.97Y-132.25
X141.55Y-86.25
X145.97Y-72.25
X145.97Y-132.25
X146.015Y-104.25
X147.285Y-60.94
X147.285Y-63.48
X147.285Y-66.02
X147.285Y-68.56
X147.285Y-120.94
X147.285Y-123.48
X147.285Y-126.02
X147.285Y-128.56
X148.015Y-104.25
X149.97Y-122.25
X149.97Y-127.25
X150.155Y-62.06
X150.155Y-67.06
X154.47Y-104.25
X156.47Y-104.25
X160.97Y-62.25
X160.97Y-67.25
X160.97Y-72.25
X160.97Y-77.25
X161.47Y-122.275
X161.47Y-127.275
X161.47Y-131.75
X161.47Y-136.75
X166.31Y-57.25
X166.39Y-101.75
X166.39Y-104.75
X166.39Y-107.75
X166.39Y-113.75
X166.39Y-116.75
X167.66Y-61.13
X167.66Y-68.75
X167.66Y-120.97
X167.66Y-128.59
X168.97Y-72.75
X168.97Y-98.75
X168.97Y-110.75
X168.97Y-132.25
X170.2Y-61.13
X170.2Y-68.75
X170.2Y-120.97
X170.2Y-128.59
X172.74Y-61.13
X172.74Y-68.75
X172.74Y-120.97
X172.74Y-128.59
X173.97Y-72.75
X173.97Y-98.75
X173.97Y-110.75
X173.97Y-132.25
X175.28Y-61.13
X175.28Y-68.75
X175.28Y-120.97
X175.28Y-128.59
X176.47Y-57.25
X176.55Y-101.75
X176.55Y-104.75
X176.55Y-107.75
X176.55Y-113.75
X176.55Y-116.75
X179.045Y-122.25
X179.045Y-127.25
X179.47Y-62.25
X179.47Y-67.25
X182.045Y-119.67
X182.045Y-129.83
X182.47Y-59.67
X182.47Y-69.83
X199.47Y-96.67
X199.47Y-106.83
X202.97Y-96.67
X202.97Y-106.83
X211.39Y-110.25
X211.39Y-118.25
X221.55Y-110.25
X221.55Y-118.25
T4
X230.355Y-66.68
X230.355Y-70.64
X230.355Y-74.6
X230.355Y-78.56
X230.355Y-82.52
X230.355Y-86.48
X230.355Y-90.44
X230.355Y-94.4
X230.355Y-98.36
X230.355Y-102.32
X230.355Y-106.28
X230.355Y-110.24
X230.355Y-114.2
X230.355Y-118.16
X230.355Y-122.12
T5
X101.045Y-85.123
X101.045Y-87.662
T6
X93.17Y-85.15
X93.17Y-87.65
T7
X91.72Y-49.425
X91.72Y-54.425
X91.72Y-59.425
X91.72Y-69.425
X91.72Y-74.425
X91.72Y-79.425
X91.72Y-109.425
X91.72Y-114.425
X91.72Y-119.425
X91.72Y-129.425
X91.72Y-134.425
X91.72Y-139.425
X99.22Y-49.425
X99.22Y-54.425
X99.22Y-59.425
X99.22Y-69.425
X99.22Y-74.425
X99.22Y-79.425
X99.22Y-109.425
X99.22Y-114.425
X99.22Y-119.425
X99.22Y-129.425
X99.22Y-134.425
X99.22Y-139.425
X101.72Y-49.425
X101.72Y-54.425
X101.72Y-59.425
X101.72Y-69.425
X101.72Y-74.425
X101.72Y-79.425
X101.72Y-109.425
X101.72Y-114.425
X101.72Y-119.425
X101.72Y-129.425
X101.72Y-134.425
X101.72Y-139.425
X106.72Y-91.425
X106.72Y-97.425
X110.72Y-91.425
X110.72Y-97.425
X114.72Y-91.425
X114.72Y-97.425
X118.72Y-91.425
X118.72Y-97.425
X122.72Y-91.425
X122.72Y-97.425
X126.72Y-91.425
X126.72Y-97.425
T8
X134.47Y-62.17
X134.47Y-67.25
X134.47Y-122.17
X134.47Y-127.25
X154.79Y-54.55
X154.79Y-59.63
X154.79Y-64.71
X154.79Y-69.79
X154.79Y-74.87
X154.79Y-114.55
X154.79Y-119.63
X154.79Y-124.71
X154.79Y-129.79
X154.79Y-134.87
T9
X95.32Y-40.85
X95.32Y-147.9
X225.47Y-40.9
X225.47Y-147.9
M30
